<svg xmlns="http://www.w3.org/2000/svg" xmlns:xlink="http://www.w3.org/1999/xlink" width="96" height="128" version="1.1"><rect id="backgroundrect" width="100%" height="100%" x="0" y="0" fill="none" stroke="none"/>

  <g class="currentLayer" style=""><title>Layer 1</title><g id="surface1" class="" stroke="#ffffff" stroke-opacity="1" fill="#6d6d6d" fill-opacity="1">
    <path style="fill-rule: nonzero;" d="M47.05253853730011,0.023437500000000007 C20.78300653730011,0.808594 0.5291005373001099,23.730469 0.5291005373001099,50.011719 L0.5291005373001099,115.992188 C0.5291005373001099,119.558594 4.83769453730011,121.339844 7.35722553730011,118.820312 L13.58769453730011,114.1875 C15.25175653730011,112.949219 17.58769453730011,113.191406 18.96269453730011,114.738281 L29.70097553730011,126.828125 C31.26347553730011,128.390625 33.79472553730011,128.390625 35.35722553730011,126.828125 L45.54081953730011,115.363281 C47.13066253730011,113.574219 49.92753853730011,113.574219 51.51738153730011,115.363281 L61.70097553730011,126.828125 C63.26347553730011,128.390625 65.79472553730011,128.390625 67.35722553730011,126.828125 L78.09550653730011,114.738281 C79.47050653730011,113.191406 81.80644453730011,112.949219 83.47050653730011,114.1875 L89.70097553730011,118.820312 C92.22050653730011,121.339844 96.52910053730011,119.554688 96.52910053730011,115.992188 L96.52910053730011,48 C96.52910053730011,21 74.23613153730011,-0.792969 47.05253853730011,0.023437500000000007 zM32.52910053730011,56 C28.11113153730011,56 24.52910053730011,52.417969 24.52910053730011,48 C24.52910053730011,43.582031 28.11113153730011,40 32.52910053730011,40 C36.94706953730011,40 40.52910053730011,43.582031 40.52910053730011,48 C40.52910053730011,52.417969 36.94706953730011,56 32.52910053730011,56 zM64.52910053730011,56 C60.11113153730011,56 56.52910053730011,52.417969 56.52910053730011,48 C56.52910053730011,43.582031 60.11113153730011,40 64.52910053730011,40 C68.94706953730011,40 72.52910053730011,43.582031 72.52910053730011,48 C72.52910053730011,52.417969 68.94706953730011,56 64.52910053730011,56 zM64.52910053730011,56 " id="svg_1" stroke="#ffffff" stroke-opacity="1" fill="#6d6d6d" fill-opacity="1"/>
  </g></g></svg>
